<svg id="Capa_1" enable-background="new 0 0 511.97 511.97" height="512" viewBox="0 0 511.97 511.97" width="512" xmlns="http://www.w3.org/2000/svg"><g><path d="m405.721 38.534h-43.853v36.544c0 12.11 9.817 21.926 21.926 21.926 12.11 0 21.926-9.817 21.926-21.926v-36.544z" fill="#edf7fc"/><path d="m60.464 7.502c-12.112 0-21.93 9.818-21.93 21.93v475.006h279.482v-407.434l21.926-89.502h-279.478z" fill="#edf7fc"/><path d="m80.46 7.5c-12.11 0-21.93 9.82-21.93 21.93v475.01h-20v-475.01c0-12.11 9.82-21.93 21.93-21.93z" fill="#dce9f7"/><path d="m383.795 97.004h-65.779v-67.576c0-12.109 9.817-21.926 21.926-21.926 12.11 0 21.926 9.817 21.926 21.926v45.65c.001 12.109 9.817 21.926 21.927 21.926z" fill="#bed9fd"/><path d="m286.993 240.439h186.452v264.029h-186.452z" fill="#77839e"/><path d="m286.99 240.44h20v264.03h-20z" fill="#68748f"/><path d="m318.133 271.501h124.249v46.593h-124.249z" fill="#eaf6ff"/><path d="m411.32 411.281h31.062v62.125h-31.062z" fill="#ff9fb6"/><path d="m442.382 349.156h-124.249v124.25h93.187v-62.125h31.062z" fill="#80b6fc"/><path d="m227.754 95.258c-.334-14.164-11.485-25.653-25.653-25.653-10.77 0-19.983 6.64-23.786 16.046-3.803-9.407-13.017-16.046-23.786-16.046-14.168 0-24.494 11.533-25.653 25.653-.57 6.951 3.789 14.15 7.378 17.998l42.061 41.987 42.061-41.987c3.989-3.847 7.537-11.244 7.378-17.998z" fill="#ff9fb6"/><path d="m156.25 113.26 32.06 32-10 9.98-42.06-41.98c-3.59-3.85-7.95-11.05-7.38-18 1.16-14.12 11.49-25.65 25.66-25.65 3.58 0 6.99.73 10.08 2.07-8.89 3.93-14.87 13.03-15.74 23.58-.57 6.95 3.79 14.15 7.38 18z" fill="#f77ca9"/><g><path d="m38.53 185c4.142 0 7.5-3.357 7.5-7.5v-148.07c0-7.957 6.473-14.43 14.43-14.43h253.845c-2.476 4.381-3.789 9.399-3.789 14.429l.003 203.511h-23.53c-4.142 0-7.5 3.357-7.5 7.5v185.3c0 4.143 3.358 7.5 7.5 7.5s7.5-3.357 7.5-7.5v-177.8h94.89c4.142 0 7.5-3.357 7.5-7.5s-3.358-7.5-7.5-7.5h-63.86v-128.436h58.275c16.226 0 29.426-13.2 29.426-29.426v-36.544c0-4.143-3.358-7.5-7.5-7.5h-36.353c-.064-16.398-12.439-31.034-29.427-31.034h-279.48c-16.228 0-29.43 13.202-29.43 29.43v148.07c0 4.143 3.358 7.5 7.5 7.5zm330.839-138.966h28.853v29.044c0 7.954-6.472 14.426-14.426 14.426s-14.426-6.472-14.426-14.426v-29.044zm-43.849-16.604c0-4.172 1.789-7.924 4.626-10.561 2.576-2.392 6.013-3.867 9.797-3.867 7.955 0 14.426 6.472 14.426 14.427v45.649c0 5.238 1.376 10.161 3.785 14.426h-32.634z"/><path d="m116.027 186.346h-15.369c-4.142 0-7.5 3.357-7.5 7.5s3.358 7.5 7.5 7.5h15.369c4.142 0 7.5-3.357 7.5-7.5s-3.358-7.5-7.5-7.5z"/><path d="m255.807 186.346h-108.718c-4.142 0-7.5 3.357-7.5 7.5s3.358 7.5 7.5 7.5h108.718c4.142 0 7.5-3.357 7.5-7.5s-3.358-7.5-7.5-7.5z"/><path d="m116.027 217.407h-15.369c-4.142 0-7.5 3.357-7.5 7.5s3.358 7.5 7.5 7.5h15.369c4.142 0 7.5-3.357 7.5-7.5s-3.358-7.5-7.5-7.5z"/><path d="m255.807 217.407h-108.718c-4.142 0-7.5 3.357-7.5 7.5s3.358 7.5 7.5 7.5h108.718c4.142 0 7.5-3.357 7.5-7.5s-3.358-7.5-7.5-7.5z"/><path d="m116.027 248.47h-15.369c-4.142 0-7.5 3.357-7.5 7.5s3.358 7.5 7.5 7.5h15.369c4.142 0 7.5-3.357 7.5-7.5s-3.358-7.5-7.5-7.5z"/><path d="m255.807 248.47h-108.718c-4.142 0-7.5 3.357-7.5 7.5s3.358 7.5 7.5 7.5h108.718c4.142 0 7.5-3.357 7.5-7.5s-3.358-7.5-7.5-7.5z"/><path d="m116.027 279.532h-15.369c-4.142 0-7.5 3.357-7.5 7.5s3.358 7.5 7.5 7.5h15.369c4.142 0 7.5-3.357 7.5-7.5s-3.358-7.5-7.5-7.5z"/><path d="m255.807 279.532h-108.718c-4.142 0-7.5 3.357-7.5 7.5s3.358 7.5 7.5 7.5h108.718c4.142 0 7.5-3.357 7.5-7.5s-3.358-7.5-7.5-7.5z"/><path d="m116.027 310.594h-15.369c-4.142 0-7.5 3.357-7.5 7.5s3.358 7.5 7.5 7.5h15.369c4.142 0 7.5-3.357 7.5-7.5s-3.358-7.5-7.5-7.5z"/><path d="m255.807 310.594h-108.718c-4.142 0-7.5 3.357-7.5 7.5s3.358 7.5 7.5 7.5h108.718c4.142 0 7.5-3.357 7.5-7.5s-3.358-7.5-7.5-7.5z"/><path d="m116.027 341.764h-15.369c-4.142 0-7.5 3.357-7.5 7.5s3.358 7.5 7.5 7.5h15.369c4.142 0 7.5-3.357 7.5-7.5s-3.358-7.5-7.5-7.5z"/><path d="m255.807 341.764h-108.718c-4.142 0-7.5 3.357-7.5 7.5s3.358 7.5 7.5 7.5h108.718c4.142 0 7.5-3.357 7.5-7.5s-3.358-7.5-7.5-7.5z"/><path d="m116.027 372.703h-15.369c-4.142 0-7.5 3.357-7.5 7.5s3.358 7.5 7.5 7.5h15.369c4.142 0 7.5-3.357 7.5-7.5s-3.358-7.5-7.5-7.5z"/><path d="m255.807 372.703h-108.718c-4.142 0-7.5 3.357-7.5 7.5s3.358 7.5 7.5 7.5h108.718c4.142 0 7.5-3.357 7.5-7.5s-3.358-7.5-7.5-7.5z"/><path d="m116.027 403.644h-15.369c-4.142 0-7.5 3.357-7.5 7.5s3.358 7.5 7.5 7.5h15.369c4.142 0 7.5-3.357 7.5-7.5s-3.358-7.5-7.5-7.5z"/><path d="m255.807 403.644h-108.718c-4.142 0-7.5 3.357-7.5 7.5s3.358 7.5 7.5 7.5h108.718c4.142 0 7.5-3.357 7.5-7.5s-3.358-7.5-7.5-7.5z"/><path d="m116.027 434.583h-15.369c-4.142 0-7.5 3.357-7.5 7.5s3.358 7.5 7.5 7.5h15.369c4.142 0 7.5-3.357 7.5-7.5s-3.358-7.5-7.5-7.5z"/><path d="m255.807 434.583h-108.718c-4.142 0-7.5 3.357-7.5 7.5s3.358 7.5 7.5 7.5h108.718c4.142 0 7.5-3.357 7.5-7.5s-3.358-7.5-7.5-7.5z"/><path d="m473.44 232.939h-51.38c-4.142 0-7.5 3.357-7.5 7.5s3.358 7.5 7.5 7.5h43.88v249.03h-171.45v-38.54c0-4.143-3.358-7.5-7.5-7.5s-7.5 3.357-7.5 7.5v38.51h-233.46v-286.75c0-4.143-3.358-7.5-7.5-7.5s-7.5 3.357-7.5 7.5v294.25c0 4.143 3.358 7.5 7.5 7.5l434.91.03c4.142 0 7.5-3.357 7.5-7.5v-264.03c0-4.142-3.358-7.5-7.5-7.5z"/><path d="m449.882 271.501c0-4.143-3.358-7.5-7.5-7.5h-124.249c-4.142 0-7.5 3.357-7.5 7.5v46.593c0 4.143 3.358 7.5 7.5 7.5h124.249c4.142 0 7.5-3.357 7.5-7.5zm-15 39.093h-109.249v-31.593h109.249z"/><path d="m318.133 480.905h124.249c4.142 0 7.5-3.357 7.5-7.5v-124.249c0-4.143-3.358-7.5-7.5-7.5h-124.249c-4.142 0-7.5 3.357-7.5 7.5v124.249c0 4.143 3.358 7.5 7.5 7.5zm100.687-124.249h16.062v16.058l-16.062-.009zm0 31.05 16.062.009v16.067h-16.062zm0 31.075h16.062v47.124h-16.062zm-31.101-62.125h16.102v16.041l-16.102-.009zm0 31.032 16.102.009v16.084h-16.102zm0 31.093h16.101v16.062h-16.101zm0 31.062h16.101v16.063h-16.101zm-31.063-93.187h16.063v16.024l-16.063-.009zm0 31.015 16.063.009v16.101h-16.063zm0 31.11h16.063v16.062h-16.063zm0 31.062h16.063v16.063h-16.063zm-31.023-93.187h16.023v16.006l-16.023-.009zm0 30.998 16.023.009v16.119h-16.023zm0 31.127h16.023v16.062h-16.023zm0 31.062h16.023v16.063h-16.023z"/><path d="m130.954 118.563 42.062 41.987c3.533 2.923 7.065 2.923 10.598 0l42.02-41.946c20.257-19.659 4.482-56.499-23.532-56.499-9.185 0-17.676 3.723-23.787 10.028-6.11-6.306-14.602-10.028-23.786-10.028-27.998 0-43.337 36.85-23.575 56.458zm23.574-41.458c7.436 0 13.001 4.978 16.833 11.357 4.359 7.257 10.359 7.257 13.906 0 3.268-6.686 9.397-11.357 16.833-11.357 15.537 0 24.245 19.753 12.976 30.843l-36.763 36.697-36.66-36.595c-11.933-15.08 1.951-30.945 12.875-30.945z"/></g></g></svg>